<mxfile host="app.diagrams.net" modified="2024-06-11T16:35:36.503Z" agent="Mozilla/5.0 (Windows NT 10.0; Win64; x64) AppleWebKit/537.36 (KHTML, like Gecko) Chrome/125.0.0.0 Safari/537.36" etag="1bkTSg00rmwkbbby2UTy" version="24.5.3" type="github">
  <diagram name="Página-1" id="ZSJSENCACcPP8gSmaEOB">
    <mxGraphModel dx="880" dy="434" grid="1" gridSize="10" guides="1" tooltips="1" connect="1" arrows="1" fold="1" page="1" pageScale="1" pageWidth="827" pageHeight="1169" math="0" shadow="0">
      <root>
        <mxCell id="0" />
        <mxCell id="1" parent="0" />
        <mxCell id="fVgUwCNFYylw4b4INK1n-3" style="edgeStyle=orthogonalEdgeStyle;rounded=0;orthogonalLoop=1;jettySize=auto;html=1;" parent="1" source="fVgUwCNFYylw4b4INK1n-1" target="fVgUwCNFYylw4b4INK1n-2" edge="1">
          <mxGeometry relative="1" as="geometry" />
        </mxCell>
        <mxCell id="fVgUwCNFYylw4b4INK1n-1" value="" style="ellipse;whiteSpace=wrap;html=1;aspect=fixed;fillColor=#919191;" parent="1" vertex="1">
          <mxGeometry x="90" y="335" width="50" height="50" as="geometry" />
        </mxCell>
        <mxCell id="e3wcZkx6HrIsEKtUwEhM-2" value="" style="edgeStyle=orthogonalEdgeStyle;rounded=0;orthogonalLoop=1;jettySize=auto;html=1;" parent="1" source="fVgUwCNFYylw4b4INK1n-2" target="e3wcZkx6HrIsEKtUwEhM-1" edge="1">
          <mxGeometry relative="1" as="geometry" />
        </mxCell>
        <mxCell id="fVgUwCNFYylw4b4INK1n-2" value="&lt;font style=&quot;font-size: 14px;&quot;&gt;Entra el usuario a Nuestras Apís&lt;/font&gt;" style="rounded=0;whiteSpace=wrap;html=1;" parent="1" vertex="1">
          <mxGeometry x="190" y="325" width="140" height="70" as="geometry" />
        </mxCell>
        <mxCell id="J_SqovS37nLpBrE6pN35-2" value="" style="edgeStyle=orthogonalEdgeStyle;rounded=0;orthogonalLoop=1;jettySize=auto;html=1;" edge="1" parent="1" source="e3wcZkx6HrIsEKtUwEhM-1" target="J_SqovS37nLpBrE6pN35-1">
          <mxGeometry relative="1" as="geometry" />
        </mxCell>
        <mxCell id="e3wcZkx6HrIsEKtUwEhM-1" value="&lt;span style=&quot;font-size: 14px;&quot;&gt;Ejecuta Self.js&lt;/span&gt;" style="rounded=0;whiteSpace=wrap;html=1;" parent="1" vertex="1">
          <mxGeometry x="360" y="325" width="140" height="70" as="geometry" />
        </mxCell>
        <mxCell id="J_SqovS37nLpBrE6pN35-4" value="" style="edgeStyle=orthogonalEdgeStyle;rounded=0;orthogonalLoop=1;jettySize=auto;html=1;" edge="1" parent="1" source="J_SqovS37nLpBrE6pN35-1" target="J_SqovS37nLpBrE6pN35-3">
          <mxGeometry relative="1" as="geometry" />
        </mxCell>
        <mxCell id="J_SqovS37nLpBrE6pN35-1" value="&lt;span style=&quot;font-size: 14px;&quot;&gt;Ejecuta API.jsx&lt;/span&gt;" style="rounded=0;whiteSpace=wrap;html=1;" vertex="1" parent="1">
          <mxGeometry x="540" y="325" width="140" height="70" as="geometry" />
        </mxCell>
        <mxCell id="J_SqovS37nLpBrE6pN35-3" value="&lt;span style=&quot;font-size: 14px;&quot;&gt;Ejecuta api-catalog.js&lt;/span&gt;" style="rounded=0;whiteSpace=wrap;html=1;" vertex="1" parent="1">
          <mxGeometry x="530" y="430" width="160" height="70" as="geometry" />
        </mxCell>
      </root>
    </mxGraphModel>
  </diagram>
</mxfile>
